<?xml version="1.0" encoding="UTF-8" standalone="no"?>
<!-- Created with Inkscape (http://www.inkscape.org/) -->

<svg
   width="16"
   height="16"
   viewBox="0 0 4.233333 4.2333335"
   version="1.1"
   id="svg830"
   xml:space="preserve"
   xmlns:xlink="http://www.w3.org/1999/xlink"
   xmlns="http://www.w3.org/2000/svg"
   xmlns:svg="http://www.w3.org/2000/svg"
   xmlns:rdf="http://www.w3.org/1999/02/22-rdf-syntax-ns#"
   xmlns:cc="http://creativecommons.org/ns#"
   xmlns:dc="http://purl.org/dc/elements/1.1/"><defs
     id="defs824"><marker
       style="overflow:visible"
       id="TriangleStart"
       refX="0"
       refY="0"
       orient="auto-start-reverse"
       markerWidth="3"
       markerHeight="3"
       viewBox="0 0 5.3244081 6.1553851"
       preserveAspectRatio="xMidYMid"><path
         transform="scale(0.5)"
         style="fill:context-stroke;fill-rule:evenodd;stroke:context-stroke;stroke-width:1pt"
         d="M 5.77,0 -2.88,5 V -5 Z"
         id="path135" /></marker></defs><metadata
     id="metadata827"><rdf:RDF><cc:Work
         rdf:about=""><dc:format>image/svg+xml</dc:format><dc:type
           rdf:resource="http://purl.org/dc/dcmitype/StillImage" /></cc:Work></rdf:RDF></metadata><g
     id="layer1"
     transform="translate(0,-161.53332)"
     style="display:none"><path
       id="rect11139"
       style="fill:#ffffff;fill-opacity:1;stroke:none;stroke-width:1.93674;stroke-linecap:round;stroke-linejoin:round;stroke-dasharray:none;stroke-opacity:1;paint-order:markers fill stroke"
       d="m 1.5875,162.06249 v 1.05833 H 0.52916666 v 1.05833 H 1.5875 v 1.05834 h 1.0583333 v -1.05834 h 1.0583333 v -1.05833 H 2.6458333 v -1.05833 z" /></g><g
     id="layer2"
     style="display:none"><path
       id="rect11989"
       style="fill:#ffffff;fill-opacity:1;stroke:none;stroke-width:1.08127;stroke-linecap:round;stroke-linejoin:round;stroke-dasharray:none;stroke-opacity:1;paint-order:markers fill stroke"
       d="M 2.1166664,0 C 1.7991667,0.60476189 1.1641666,1.1280226 0.52916667,0.79374998 V 2.6458333 c 0,0.894781 1.58749973,0.9827381 1.58749993,1.5874999 -2e-7,-0.6047618 1.5875,-0.6927189 1.5875,-1.5874999 V 0.79374998 C 3.0691666,1.0961309 2.4341666,0.60476189 2.1166664,0 Z" /></g><g
     id="layer3"
     style="display:none"><path
       id="path12441"
       style="fill:#ffffff;fill-opacity:1;stroke:none;stroke-width:1.36948;stroke-linecap:round;stroke-linejoin:round;stroke-dasharray:none;stroke-opacity:1;paint-order:markers fill stroke"
       d="m 2.1166666,0.26458333 c -0.089585,6.312e-5 -0.1790483,0.006626 -0.2676839,0.019637 v 5.1677e-4 5.1676e-4 5.1676e-4 5.1677e-4 l 5.168e-4,5.1676e-4 v 5.1677e-4 5.1676e-4 5.1677e-4 5.1676e-4 5.1677e-4 5.1676e-4 5.1676e-4 5.1677e-4 c 1.731e-4,5.1647e-4 3.454e-4,0.001033 5.167e-4,0.00155 v 5.1677e-4 5.1676e-4 5.1676e-4 5.1677e-4 5.1676e-4 5.1677e-4 5.1676e-4 5.1677e-4 l 5.168e-4,5.1676e-4 v 5.1676e-4 5.1677e-4 5.1676e-4 5.1677e-4 5.1676e-4 5.1677e-4 5.1676e-4 5.1676e-4 5.1677e-4 5.1676e-4 5.1677e-4 c 1.732e-4,5.1647e-4 3.454e-4,0.001033 5.168e-4,0.00155 v 5.1676e-4 5.1677e-4 5.1676e-4 5.1677e-4 5.1676e-4 5.1677e-4 5.1676e-4 5.1676e-4 5.1677e-4 5.1676e-4 5.1677e-4 5.1676e-4 l 5.167e-4,5.1677e-4 v 5.1676e-4 5.1676e-4 5.1677e-4 5.1676e-4 5.1677e-4 5.1676e-4 5.1677e-4 5.1676e-4 5.1677e-4 5.1676e-4 5.1676e-4 5.1677e-4 5.1676e-4 5.1677e-4 5.1676e-4 5.1677e-4 5.1676e-4 5.1676e-4 5.1677e-4 5.1676e-4 5.1677e-4 5.1676e-4 l 5.168e-4,5.1677e-4 v 5.1676e-4 5.1676e-4 5.1677e-4 5.1676e-4 5.1677e-4 5.1676e-4 5.1677e-4 5.1676e-4 5.1676e-4 5.1677e-4 5.1676e-4 5.1677e-4 5.1676e-4 5.1677e-4 5.1676e-4 5.1676e-4 5.1677e-4 5.1676e-4 5.1677e-4 5.1676e-4 5.1677e-4 5.1676e-4 5.1676e-4 5.1677e-4 5.1676e-4 5.1677e-4 5.1676e-4 5.1677e-4 5.1676e-4 5.1676e-4 5.1677e-4 5.1676e-4 5.1677e-4 5.1676e-4 C 1.852061,0.6016804 1.6403767,0.81336472 1.379244,0.81338703 1.2346606,0.81307491 1.0981648,0.74663552 1.0087239,0.63303628 0.86557772,0.74011404 0.73868791,0.86735199 0.63200275,1.010791 0.75540233,1.097691 0.82883947,1.2391685 0.82888996,1.390096 0.82885927,1.6463734 0.62111303,1.8541197 0.3648356,1.8541504 0.337962,1.8538905 0.3111618,1.8513004 0.2847371,1.8464004 0.2714279,1.9358764 0.2646919,2.0262076 0.2645833,2.1166681 c 1.0863e-4,0.090461 0.006845,0.1807916 0.0201538,0.2702678 0.0264247,-0.0049 0.0532249,-0.00749 0.0800985,-0.00775 0.25627739,3.07e-5 0.46402361,0.2077769 0.46405436,0.4640543 C 0.8288395,2.9941677 0.75540236,3.1356451 0.63200275,3.2225453 0.73868791,3.3659843 0.86557773,3.4932223 1.0087239,3.6003 1.0981649,3.4867007 1.2346606,3.4202613 1.379244,3.4199492 c 0.2611327,2.23e-5 0.472817,0.2117067 0.4728393,0.4728394 v 5.167e-4 5.168e-4 5.168e-4 5.167e-4 5.168e-4 5.168e-4 5.167e-4 5.168e-4 5.167e-4 5.168e-4 5.168e-4 5.167e-4 5.168e-4 5.168e-4 5.167e-4 5.168e-4 5.168e-4 5.167e-4 5.168e-4 5.168e-4 5.167e-4 5.168e-4 5.167e-4 5.168e-4 5.168e-4 5.167e-4 5.168e-4 5.168e-4 5.167e-4 5.168e-4 5.168e-4 5.167e-4 5.168e-4 5.168e-4 l -5.168e-4,5.167e-4 v 5.168e-4 5.167e-4 5.168e-4 5.168e-4 5.167e-4 5.168e-4 5.168e-4 5.167e-4 5.168e-4 5.168e-4 5.167e-4 5.168e-4 5.168e-4 5.167e-4 5.168e-4 5.167e-4 5.168e-4 5.168e-4 5.167e-4 5.168e-4 5.168e-4 5.167e-4 l -5.167e-4,5.168e-4 v 5.168e-4 5.167e-4 5.168e-4 5.168e-4 5.167e-4 5.168e-4 5.167e-4 5.168e-4 5.168e-4 5.167e-4 5.168e-4 5.168e-4 c -1.714e-4,5.171e-4 -3.436e-4,0.00103 -5.168e-4,0.00155 v 5.167e-4 5.168e-4 5.168e-4 5.167e-4 5.168e-4 5.167e-4 5.168e-4 5.168e-4 5.167e-4 5.168e-4 5.168e-4 l -5.168e-4,5.167e-4 v 5.168e-4 5.168e-4 5.167e-4 5.168e-4 5.168e-4 5.167e-4 5.168e-4 5.167e-4 c -1.713e-4,5.171e-4 -3.436e-4,0.00103 -5.167e-4,0.00155 v 5.168e-4 5.168e-4 5.167e-4 5.168e-4 5.168e-4 5.167e-4 5.168e-4 5.168e-4 l -5.168e-4,5.167e-4 v 5.168e-4 5.167e-4 5.168e-4 5.168e-4 c 0.088636,0.013011 0.1780984,0.019574 0.2676839,0.019637 0.089586,-6.31e-5 0.1790483,-0.00663 0.2676839,-0.019637 v -5.168e-4 c -8e-7,-5.168e-4 -8e-7,-0.00103 0,-0.00155 l -5.167e-4,-5.167e-4 c -8e-7,-5.168e-4 -8e-7,-0.00103 0,-0.00155 V 3.944462 c -8e-7,-5.168e-4 -8e-7,-0.00103 0,-0.00155 v -5.168e-4 c -1.732e-4,-5.165e-4 -3.454e-4,-0.00103 -5.168e-4,-0.00155 v -5.167e-4 c -8e-7,-5.168e-4 -8e-7,-0.00103 0,-0.00155 v -5.168e-4 c -8e-7,-5.168e-4 -8e-7,-0.00103 0,-0.00155 L 2.3828002,3.936195 c -8e-7,-5.168e-4 -8e-7,-0.00103 0,-0.00155 -8e-7,-5.168e-4 -8e-7,-0.00103 0,-0.00155 v -5.168e-4 c -8e-7,-5.168e-4 -8e-7,-0.00103 0,-0.00155 v -5.167e-4 c -1.731e-4,-5.165e-4 -3.454e-4,-0.00103 -5.167e-4,-0.00155 v -5.168e-4 c -8e-7,-5.168e-4 -8e-7,-0.00103 0,-0.00155 v -5.168e-4 c -8e-7,-5.167e-4 -8e-7,-0.00103 0,-0.00155 v -5.168e-4 c -8e-7,-5.168e-4 -8e-7,-0.00103 0,-0.00155 l -5.168e-4,-5.168e-4 c -8e-7,-5.168e-4 -8e-7,-0.00103 0,-0.00155 v -5.167e-4 c -8e-7,-5.168e-4 -8e-7,-0.00103 0,-0.00155 V 3.918107 c -8e-7,-5.168e-4 -8e-7,-0.00103 0,-0.00155 -8e-7,-5.168e-4 -8e-7,-0.00103 0,-0.00155 v -5.167e-4 c -8e-7,-5.168e-4 -8e-7,-0.00103 0,-0.00155 v -5.168e-4 c -8e-7,-5.168e-4 -8e-7,-0.00103 0,-0.00155 L 2.38125,3.9103556 c -8e-7,-5.168e-4 -8e-7,-0.00103 0,-0.00155 v -5.168e-4 c -8e-7,-5.168e-4 -8e-7,-0.00103 0,-0.00155 V 3.906222 c -8e-7,-5.168e-4 -8e-7,-0.00103 0,-0.00155 v -5.167e-4 c -8e-7,-5.168e-4 -8e-7,-0.00103 0,-0.00155 v -5.168e-4 c -8e-7,-5.168e-4 -8e-7,-0.00103 0,-0.00155 -8e-7,-5.168e-4 -8e-7,-0.00103 0,-0.00155 V 3.89847 c -8e-7,-5.168e-4 -8e-7,-0.00103 0,-0.00155 v -5.168e-4 c -8e-7,-5.168e-4 -8e-7,-0.00103 0,-0.00155 v -5.167e-4 c -8e-7,-5.168e-4 -8e-7,-0.00103 0,-0.00155 2.23e-5,-0.2611327 0.2117066,-0.4728171 0.4728393,-0.4728394 0.1445834,3.122e-4 0.2810792,0.066752 0.37052,0.1803508 C 3.3677555,3.4932193 3.4946453,3.3659813 3.6013305,3.2225423 3.4779309,3.1356421 3.4044938,2.9941647 3.4044433,2.8432372 3.404474,2.5869598 3.6122202,2.3792136 3.8684976,2.3791829 c 0.026874,2.599e-4 0.053674,0.00285 0.080099,0.00775 0.013309,-0.089476 0.020045,-0.1798072 0.020154,-0.2702678 -1.086e-4,-0.09046 -0.00684,-0.1807915 -0.020154,-0.2702677 -0.026425,0.0049 -0.053225,0.00749 -0.080099,0.00775 C 3.6122202,1.8541197 3.404474,1.6463734 3.4044433,1.390096 3.4044938,1.2391685 3.4779309,1.0976912 3.6013305,1.010791 3.4946453,0.86735198 3.3677555,0.74011403 3.2246093,0.63303628 3.1351685,0.7466355 2.9986727,0.81307488 2.8540893,0.81338703 2.5929566,0.81336472 2.3812723,0.6016804 2.38125,0.34054768 c -8e-7,-5.1676e-4 -8e-7,-0.001034 0,-0.00155 v -5.1677e-4 c -8e-7,-5.1676e-4 -8e-7,-0.001034 0,-0.00155 v -5.1676e-4 c -8e-7,-5.1677e-4 -8e-7,-0.001034 0,-0.00155 v -5.1676e-4 c -8e-7,-5.1676e-4 -8e-7,-0.001034 0,-0.00155 -8e-7,-5.1677e-4 -8e-7,-0.001034 0,-0.00155 v -5.1676e-4 c -8e-7,-5.1676e-4 -8e-7,-0.001034 0,-0.00155 V 0.3286621 c -8e-7,-5.1676e-4 -8e-7,-0.001034 0,-0.00155 v -5.1676e-4 c -8e-7,-5.1677e-4 -8e-7,-0.001034 0,-0.00155 v -5.1676e-4 c -8e-7,-5.1676e-4 -8e-7,-0.001034 0,-0.00155 l 5.167e-4,-5.1677e-4 c -8e-7,-5.1676e-4 -8e-7,-0.001034 0,-0.00155 v -5.1677e-4 c -8e-7,-5.1676e-4 -8e-7,-0.001034 0,-0.00155 v -5.1676e-4 c -8e-7,-5.1677e-4 -8e-7,-0.001034 0,-0.00155 -8e-7,-5.1676e-4 -8e-7,-0.001034 0,-0.00155 v -5.1676e-4 c -8e-7,-5.1677e-4 -8e-7,-0.001034 0,-0.00155 v -5.1676e-4 c -8e-7,-5.1676e-4 -8e-7,-0.001034 0,-0.00155 l 5.168e-4,-5.1677e-4 c -8e-7,-5.1676e-4 -8e-7,-0.001034 0,-0.00155 v -5.1677e-4 c -8e-7,-5.1676e-4 -8e-7,-0.001034 0,-0.00155 v -5.1676e-4 c -8e-7,-5.1677e-4 -8e-7,-0.001034 0,-0.00155 V 0.3043777 c 1.713e-4,-5.1706e-4 3.436e-4,-0.001034 5.167e-4,-0.00155 v -5.1677e-4 c -8e-7,-5.1676e-4 -8e-7,-0.001034 0,-0.00155 v -5.1676e-4 c -8e-7,-5.1677e-4 -8e-7,-0.001034 0,-0.00155 -8e-7,-5.1676e-4 -8e-7,-0.001034 0,-0.00155 l 5.168e-4,-5.1676e-4 c -8e-7,-5.1677e-4 -8e-7,-0.001034 0,-0.00155 v -5.1676e-4 c -8e-7,-5.1676e-4 -8e-7,-0.001034 0,-0.00155 V 0.2924886 c 1.714e-4,-5.1706e-4 3.436e-4,-0.001034 5.168e-4,-0.00155 v -5.1677e-4 c -8e-7,-5.1676e-4 -8e-7,-0.001034 0,-0.00155 v -5.1676e-4 c -8e-7,-5.1677e-4 -8e-7,-0.001034 0,-0.00155 l 5.167e-4,-5.1676e-4 c -8e-7,-5.1676e-4 -8e-7,-0.001034 0,-0.00155 v -5.1677e-4 c -0.088636,-0.013011 -0.1780984,-0.0195739 -0.2676839,-0.019637 z m 0,1.05833327 c 0.438376,0 0.79375,0.355374 0.79375,0.79375 0,0.438376 -0.355374,0.79375 -0.79375,0.79375 -0.438376,0 -0.79375,-0.355374 -0.79375,-0.79375 0,-0.438376 0.355374,-0.79375 0.79375,-0.79375 z" /></g><g
     id="layer4"
     style="display:none"><g
       id="g12625"><path
         id="path12540"
         style="fill:#ffffff;fill-opacity:1;stroke:none;stroke-width:0.957135;stroke-linecap:round;stroke-linejoin:round;stroke-dasharray:none;stroke-opacity:1;paint-order:markers fill stroke"
         d="m 2.104,1.6687807 c 1.1200328,-0.4884862 0.5600164,-0.2442431 0,0 z m 0,0 c 0,0.7081815 -0.5850315,1.2822762 -1.30670474,1.2822762 0.72167324,0 1.30670484,0.5740947 1.30670484,1.2822763 0,-0.7081816 0.585032,-1.2822763 1.3067051,-1.2822763 C 2.689032,2.9510571 2.104,2.3769625 2.104,1.6687807 Z m 1.1200328,2.0150056 c 0.3733443,-1.8318233 0.1866723,-0.9159116 0,0 z M 2.1040001,4.2333332 c 1.1200328,-2.1981877 0.5600164,-1.0990941 0,0 z M 0.79729526,2.9510569 c 1.99116934,-1.343337 0.99558464,-0.6716686 0,0 z" /><path
         id="path12542"
         style="fill:#ffffff;fill-opacity:1;stroke:none;stroke-width:0.554032;stroke-linecap:round;stroke-linejoin:round;stroke-dasharray:none;stroke-opacity:1;paint-order:markers fill stroke"
         d="m 1.3142415,0.68644973 c 0.6729213,-0.27242227 0.3364606,-0.13621114 0,0 z m 0,0 c 0,0.39494337 -0.35148992,0.71510847 -0.78507484,0.71510847 0.43358492,0 0.78507494,0.320165 0.78507494,0.7151084 0,-0.3949434 0.3514902,-0.7151084 0.7850751,-0.7151084 -0.433585,1e-7 -0.7850752,-0.320165 -0.7850752,-0.71510847 z M 1.9871628,1.8101915 c 0.2243073,-1.02158339 0.1121535,-0.5107918 0,0 z M 1.3142416,2.1166666 c 0.6729213,-1.22590007 0.3364607,-0.6129502 0,0 z M 0.52916666,1.4015582 c 1.19630464,-0.74916127 0.59815234,-0.3745808 0,0 z" /><path
         id="path12546"
         style="fill:#ffffff;fill-opacity:1;stroke:none;stroke-width:0.554032;stroke-linecap:round;stroke-linejoin:round;stroke-dasharray:none;stroke-opacity:1;paint-order:markers fill stroke"
         d="m 3.1663248,0.1572831 c 0.6729213,-0.27242227 0.3364606,-0.13621114 0,0 z m 0,0 c 0,0.39494337 -0.3514899,0.71510847 -0.7850748,0.71510847 0.4335849,0 0.7850749,0.32016503 0.7850749,0.71510843 0,-0.3949434 0.3514902,-0.71510843 0.7850751,-0.71510843 -0.433585,10e-8 -0.7850752,-0.320165 -0.7850752,-0.71510847 z m 0.6729213,1.1237418 c 0.2243073,-1.02158342 0.1121535,-0.51079183 0,0 z M 3.1663249,1.5875 c 0.6729213,-1.2259001 0.3364607,-0.61295023 0,0 z M 2.38125,0.87239157 c 1.1963046,-0.74916127 0.5981523,-0.3745808 0,0 z" /></g></g><g
     id="layer5"
     style="display:none"><g
       id="g13070"><ellipse
         style="fill:#ffffff;fill-opacity:1;stroke:none;stroke-width:1.72825;stroke-linecap:butt;stroke-linejoin:round;stroke-dasharray:none;stroke-opacity:1;paint-order:markers fill stroke"
         id="path12985"
         cx="2.1166666"
         cy="0.79374999"
         rx="0.79375005"
         ry="0.52916664" /><path
         id="circle12987"
         style="fill:#ffffff;fill-opacity:1;stroke:none;stroke-width:3.15534;stroke-linecap:butt;stroke-linejoin:round;stroke-dasharray:none;stroke-opacity:1;paint-order:markers fill stroke"
         d="m 2.1166666,1.3229166 a 1.0583333,1.3229166 0 0 0 -1.0583333,1.3229167 1.0583333,1.3229166 0 0 0 0.79375,1.2805419 V 2.6458333 H 2.38125 V 3.9263752 A 1.0583333,1.3229166 0 0 0 3.1749999,2.6458333 1.0583333,1.3229166 0 0 0 2.1166666,1.3229166 Z" /><path
         style="fill:none;fill-rule:evenodd;stroke:#ffffff;stroke-width:0.264583;stroke-linecap:round;stroke-linejoin:miter;stroke-dasharray:none;stroke-opacity:1"
         d="M 1.3229166,1.8520833 0.52916666,1.3229166 V 0.52916666"
         id="path12989" /><path
         style="fill:none;fill-rule:evenodd;stroke:#ffffff;stroke-width:0.264583;stroke-linecap:round;stroke-linejoin:miter;stroke-dasharray:none;stroke-opacity:1"
         d="M 1.3229166,2.3812499 0.52916666,2.9104166 v 0.79375"
         id="path12991" /><path
         style="fill:none;fill-rule:evenodd;stroke:#ffffff;stroke-width:0.264583;stroke-linecap:round;stroke-linejoin:miter;stroke-dasharray:none;stroke-opacity:1"
         d="M 1.3229166,2.1166666 H 0.79374999 L 0.26458333,1.8520833"
         id="path12993" /><g
         id="g13004"
         transform="translate(0.26458329)"><path
           style="fill:none;fill-rule:evenodd;stroke:#ffffff;stroke-width:0.264583;stroke-linecap:round;stroke-linejoin:miter;stroke-dasharray:none;stroke-opacity:1"
           d="m 2.6458333,1.8520833 0.79375,-0.5291667 V 0.52916666"
           id="path12995" /><path
           style="fill:none;fill-rule:evenodd;stroke:#ffffff;stroke-width:0.264583;stroke-linecap:round;stroke-linejoin:miter;stroke-dasharray:none;stroke-opacity:1"
           d="m 2.6458333,2.3812499 0.79375,0.5291667 v 0.79375"
           id="path12997" /><path
           style="fill:none;fill-rule:evenodd;stroke:#ffffff;stroke-width:0.264583;stroke-linecap:round;stroke-linejoin:miter;stroke-dasharray:none;stroke-opacity:1"
           d="M 2.6458333,2.1166666 H 3.1749999 L 3.7041666,1.8520833"
           id="path12999" /></g></g></g><g
     id="layer10"
     style="display:none;opacity:1"><path
       id="path17048"
       style="fill:#ffffff;fill-opacity:1;stroke-width:0.529168;stroke-linecap:round;stroke-linejoin:round;paint-order:markers fill stroke"
       d="M 1.5875,1.0583333 C 1.4374541,0.77796998 1.798677,0.26458333 2.1166666,0.26458332 c 0.3179896,-10e-9 0.6792126,0.51338665 0.5291667,0.79374998 -0.166461,0.3110352 -0.8918723,0.3110352 -1.0583333,0 z" /><path
       id="path17532"
       style="opacity:1;fill:#ffffff;fill-opacity:1;stroke-width:0.52917;stroke-linecap:round;stroke-linejoin:round;paint-order:markers fill stroke"
       d="m 2.1039399,2.3812499 c 0,0.5845014 -0.296145,1.0583334 -0.6614583,1.0583334 -0.3653133,0 -0.396875,-0.473832 -0.396875,-1.0583333 0,-0.5845014 0.4284367,-1.0583334 0.79375,-1.0583334 0.3653133,0 0.2645833,0.4738319 0.2645833,1.0583333 z" /><use
       x="0"
       y="0"
       xlink:href="#path17532"
       id="use18273"
       transform="matrix(-1,0,0,1,4.24606,-4.0624996e-8)"
       style="fill:#ffffff;fill-opacity:1" /><g
       id="g18284"
       style="fill:#ffffff;fill-opacity:1;stroke:#ffffff;stroke-opacity:1"><path
         style="fill:#ffffff;fill-opacity:1;fill-rule:evenodd;stroke:#ffffff;stroke-width:0.396875;stroke-linecap:round;stroke-linejoin:miter;stroke-dasharray:none;stroke-opacity:1"
         d="M 1.0583333,1.5875 0.52916666,1.0583333"
         id="path18275" /><path
         style="fill:#ffffff;fill-opacity:1;fill-rule:evenodd;stroke:#ffffff;stroke-width:0.396875;stroke-linecap:round;stroke-linejoin:miter;stroke-dasharray:none;stroke-opacity:1"
         d="M 0.82682289,2.38125 H 0.23151042"
         id="path18277" /><path
         style="fill:#ffffff;fill-opacity:1;fill-rule:evenodd;stroke:#ffffff;stroke-width:0.396875;stroke-linecap:round;stroke-linejoin:miter;stroke-dasharray:none;stroke-opacity:1"
         d="M 0.79374999,3.1749999 0.26458333,3.7041666"
         id="path18279" /></g><g
       id="g18292"
       transform="matrix(-1,0,0,1,4.2333332,-4.6875008e-8)"
       style="fill:#ffffff;fill-opacity:1;stroke:#ffffff;stroke-opacity:1"><path
         style="fill:#ffffff;fill-opacity:1;fill-rule:evenodd;stroke:#ffffff;stroke-width:0.396875;stroke-linecap:round;stroke-linejoin:miter;stroke-dasharray:none;stroke-opacity:1"
         d="M 1.0583333,1.5875 0.52916666,1.0583333"
         id="path18286" /><path
         style="fill:#ffffff;fill-opacity:1;fill-rule:evenodd;stroke:#ffffff;stroke-width:0.396875;stroke-linecap:round;stroke-linejoin:miter;stroke-dasharray:none;stroke-opacity:1"
         d="M 0.82682289,2.38125 H 0.23151042"
         id="path18288" /><path
         style="fill:#ffffff;fill-opacity:1;fill-rule:evenodd;stroke:#ffffff;stroke-width:0.396875;stroke-linecap:round;stroke-linejoin:miter;stroke-dasharray:none;stroke-opacity:1"
         d="M 0.79374999,3.1749999 0.26458333,3.7041666"
         id="path18290" /></g></g><g
     id="layer6"
     style="display:none"><g
       id="g16865"><rect
         style="fill:#ffffff;fill-opacity:1;stroke:none;stroke-width:1.36948;stroke-linecap:round;stroke-linejoin:round;stroke-dasharray:none;stroke-opacity:1;paint-order:markers fill stroke"
         id="rect12727"
         width="1.0583333"
         height="2.6458333"
         x="1.5875"
         y="1.3694758e-08" /><rect
         style="fill:#ffffff;fill-opacity:1;stroke:none;stroke-width:1.36948;stroke-linecap:round;stroke-linejoin:round;stroke-dasharray:none;stroke-opacity:1;paint-order:markers fill stroke"
         id="rect12729"
         width="1.0583333"
         height="1.0583333"
         x="1.5875"
         y="3.175" /></g></g><g
     id="layer7"
     style="display:none"><path
       style="color:#000000;fill:#ffffff;fill-rule:evenodd;stroke-linejoin:round;-inkscape-stroke:none"
       d="m 3.1749999,1.3229166 -1.3229166,0.79375 H 1.3229166 c 0,0 -0.3021112,-0.1051354 -1.05833327,-0.2645833 C 0.79374998,2.38125 1.4453125,2.9201822 1.4453125,2.9201822 1.6601571,3.1774076 2.0569648,3.1726837 2.265625,2.9104166 L 3.9687499,0.79374995 Z"
       id="path12813" /></g><g
     id="layer8"
     style="display:none"><g
       id="g19133"><g
         id="path13266"><g
           id="g19115"><g
             id="path19117"><path
               style="color:#000000;fill:#ffffff;fill-rule:evenodd;stroke-width:0.128952pt;-inkscape-stroke:none"
               d="M 2.8607108,1.0545161 1.7485967,1.7049911 1.7419812,0.415486 Z"
               id="path19121" /><path
               style="color:#000000;fill:#ffffff;fill-rule:evenodd;-inkscape-stroke:none"
               d="M 1.6542969,0.26757813 1.6640625,1.8535156 3.0332031,1.0527344 2.9042969,0.98046875 Z M 1.828125,0.56445312 2.6894531,1.0546875 1.8339844,1.5566406 Z"
               id="path19123" /></g></g><path
           style="color:#000000;fill:#ffffff;stroke-linecap:round;stroke-linejoin:round;-inkscape-stroke:none;paint-order:markers fill stroke"
           d="M 2.1152344,0.79296875 C 1.242751,0.79744486 0.53412719,1.51404 0.53710937,2.3867188 0.54009156,3.2593975 1.2544595,3.970242 2.1269531,3.96875 2.9994467,3.967258 3.7109375,3.2535433 3.7109375,2.3808594 A 0.2645835,0.2645835 0 0 0 3.4453125,2.1171875 0.2645835,0.2645835 0 0 0 3.1816406,2.3808594 c 0,0.5871424 -0.4699311,1.0575904 -1.0566406,1.0585937 -0.5867095,10e-4 -1.0585405,-0.4675484 -1.0605469,-1.0546875 -0.00201,-0.587139 0.4660318,-1.05949 1.0527344,-1.0625 A 0.2645835,0.2645835 0 0 0 2.3808594,1.0566406 0.2645835,0.2645835 0 0 0 2.1152344,0.79296875 Z"
           id="path19125" /></g></g><path
       style="display:none;fill:none;fill-opacity:1;stroke:#ffffff;stroke-width:0.529167;stroke-linecap:round;stroke-linejoin:round;stroke-dasharray:none;stroke-opacity:1;marker-end:url(#TriangleStart);paint-order:markers fill stroke"
       id="path19111"
       d="M 3.4461112,2.381541 A 1.3226621,1.3232251 0 0 1 2.12571,3.7047642 1.3226621,1.3232251 0 0 1 0.8007947,2.3860647 1.3226621,1.3232251 0 0 1 2.1166664,1.0583333" /></g><g
     id="layer9"
     style="display:none"><g
       id="g14033"
       style="display:inline"><path
         id="rect14026"
         style="fill:#ffffff;stroke-width:0.529167;stroke-linecap:round;stroke-linejoin:round;paint-order:markers fill stroke"
         d="M 0.52916664,0.26458332 H 3.7041666 L 2.6458333,2.38125 H 1.5875 Z" /><rect
         style="fill:#ffffff;fill-opacity:1;stroke:none;stroke-width:0.529167;stroke-linecap:round;stroke-linejoin:round;stroke-dasharray:none;stroke-opacity:1;paint-order:markers fill stroke"
         id="rect14029"
         width="0.52916664"
         height="1.5875001"
         x="1.8520833"
         y="2.3812499" /></g></g><g
     id="layer11"><g
       aria-label="?"
       id="text372"
       style="font-weight:bold;font-size:4.76931px;line-height:125%;font-family:'Parry Hotter';-inkscape-font-specification:'Parry Hotter Bold';text-align:center;letter-spacing:0px;word-spacing:0px;text-anchor:middle;fill:#ffffff;fill-opacity:1;stroke-width:0.259703px"
       transform="matrix(0.96379325,0,0,1.076923,0.03831871,-0.02035238)"><path
         d="M 1.7384909,2.7400581 Q 1.7408197,2.414031 1.8339703,2.2626613 1.9294496,2.1112916 2.2112301,1.8947165 2.3765724,1.7596482 2.4743806,1.6036209 2.5745174,1.4475937 2.5745174,1.2543062 q 0,-0.2142463 -0.1141094,-0.33534207 -0.1117807,-0.12109576 -0.3213696,-0.12109576 -0.1723285,0 -0.2934243,0.10246565 Q 1.7268471,1.0027997 1.7245183,1.2007447 H 1.0631492 l -0.00466,-0.013973 Q 1.0515054,0.73964925 1.351916,0.50211526 1.6546554,0.26458127 2.1390384,0.26458127 q 0.5216433,0 0.8173964,0.26547917 0.2980819,0.2631504 0.2980819,0.71725946 0,0.2957532 -0.1746573,0.5472597 Q 2.9075308,2.0460862 2.6467091,2.216086 2.5046545,2.325538 2.460408,2.4373187 2.4161614,2.5467706 2.4161614,2.7400581 Z M 2.420819,3.7041667 H 1.7361622 V 3.1219755 H 2.420819 Z"
         style="font-weight:normal;font-family:'Roboto Slab';-inkscape-font-specification:'Roboto Slab, Normal';fill:#ffffff;fill-opacity:1;stroke-width:0.259703px"
         id="path679" /></g></g></svg>
