# Blender 3.3.10
# www.blender.org
o CheckMark
v -0.257150 0.567023 -0.060173
v -0.507192 0.898369 -0.060174
v -0.257150 0.567023 0.060173
v -0.507192 0.898369 0.060173
v 0.061652 0.561853 -0.060174
v 0.591543 1.127427 -0.060173
v 0.061652 0.561853 0.060173
v 0.591543 1.127427 0.060174
v -0.086418 0.518168 0.060173
v -0.086418 0.744322 0.060173
v -0.086418 0.518168 -0.060173
v -0.086418 0.744322 -0.060173
vn -0.4338 -0.6320 -0.6422
vn -0.6751 0.5002 0.5423
vn -0.6751 0.5002 -0.5423
vn 0.3976 -0.6450 0.6525
vn -0.0473 0.5780 0.8147
vn 0.0031 -0.7605 0.6494
vn 0.3976 -0.6450 -0.6525
vn 0.6625 0.5207 0.5385
vn -0.0473 0.5780 -0.8147
vn 0.0031 -0.7605 -0.6494
vn 0.6625 0.5207 -0.5385
vn -0.4338 -0.6320 0.6422
vt 0.375000 0.000000
vt 0.375000 1.000000
vt 0.125000 0.750000
vt 0.625000 0.000000
vt 0.625000 1.000000
vt 0.875000 0.750000
vt 0.125000 0.500000
vt 0.375000 0.250000
vt 0.625000 0.250000
vt 0.875000 0.500000
vt 0.375000 0.750000
vt 0.625000 0.750000
vt 0.375000 0.500000
vt 0.625000 0.500000
vt 0.250000 0.500000
vt 0.375000 0.375000
vt 0.750000 0.500000
vt 0.625000 0.375000
vt 0.250000 0.750000
vt 0.375000 0.875000
vt 0.750000 0.750000
vt 0.625000 0.875000
s 1
f 1/1/1 4/9/2 2/4/3
f 7/13/4 10/18/5 9/16/6
f 5/11/7 8/14/8 7/13/4
f 1/2/1 12/22/9 11/20/10
f 11/19/10 7/13/4 9/15/6
f 12/21/9 4/10/2 10/17/5
f 6/12/11 10/17/5 8/14/8
f 1/3/1 9/15/6 3/7/12
f 5/11/7 12/22/9 6/12/11
f 3/8/12 10/18/5 4/9/2
f 1/1/1 3/8/12 4/9/2
f 7/13/4 8/14/8 10/18/5
f 5/11/7 6/12/11 8/14/8
f 1/2/1 2/5/3 12/22/9
f 11/19/10 5/11/7 7/13/4
f 12/21/9 2/6/3 4/10/2
f 6/12/11 12/21/9 10/17/5
f 1/3/1 11/19/10 9/15/6
f 5/11/7 11/20/10 12/22/9
f 3/8/12 9/16/6 10/18/5
