# Blender 3.3.10
# www.blender.org
o FeatureMarker
v -0.141153 0.737647 0.141153
v -0.141153 1.019954 0.141153
v -0.141153 0.737647 -0.141153
v -0.141153 1.019954 -0.141153
v 0.141153 0.737647 0.141153
v 0.141153 1.019954 0.141153
v 0.141153 0.737647 -0.141153
v 0.141153 1.019954 -0.141153
v -0.436079 0.737647 0.141153
v -0.436079 1.019954 0.141153
v -0.436079 1.019954 -0.141153
v -0.436079 0.737647 -0.141153
v 0.436079 0.737647 -0.141153
v 0.436079 1.019954 -0.141153
v 0.436079 1.019954 0.141153
v 0.436079 0.737647 0.141153
v -0.141153 0.442722 -0.141153
v 0.141153 0.442722 -0.141153
v 0.141153 0.442722 0.141153
v -0.141153 0.442722 0.141153
v 0.141153 1.314880 -0.141153
v -0.141153 1.314880 -0.141153
v -0.141153 1.314880 0.141153
v 0.141153 1.314880 0.141153
vn -0.3015 0.3015 -0.9045
vn 0.3015 -0.3015 -0.9045
vn -0.3015 -0.3015 -0.9045
vn 0.3015 0.3015 0.9045
vn -0.3015 -0.3015 0.9045
vn 0.3015 -0.3015 0.9045
vn -0.5774 0.5774 0.5774
vn -0.5774 -0.5774 -0.5774
vn -0.5774 -0.5774 0.5774
vn -0.3015 0.3015 0.9045
vn -0.5774 0.5774 -0.5774
vn 0.5774 0.5774 -0.5774
vn 0.5774 -0.5774 0.5774
vn 0.5774 -0.5774 -0.5774
vn 0.3015 0.3015 -0.9045
vn 0.5774 0.5774 0.5774
vt 0.375000 1.000000
vt 0.375000 0.000000
vt 0.125000 0.750000
vt 0.625000 1.000000
vt 0.625000 0.000000
vt 0.875000 0.750000
vt 0.375000 0.250000
vt 0.125000 0.500000
vt 0.625000 0.250000
vt 0.875000 0.500000
vt 0.375000 0.750000
vt 0.625000 0.750000
vt 0.375000 0.500000
vt 0.625000 0.500000
vt 0.375000 0.000000
vt 0.625000 0.000000
vt 0.625000 0.250000
vt 0.375000 0.250000
vt 0.375000 0.500000
vt 0.625000 0.500000
vt 0.625000 0.750000
vt 0.375000 0.750000
vt 0.125000 0.500000
vt 0.375000 0.500000
vt 0.375000 0.750000
vt 0.125000 0.750000
vt 0.625000 0.500000
vt 0.875000 0.500000
vt 0.875000 0.750000
vt 0.625000 0.750000
s 1
f 4/9/1 7/13/2 3/7/3
f 6/12/4 1/1/5 5/11/6
f 10/16/7 12/18/8 9/15/9
f 10/16/7 1/2/5 2/5/10
f 11/17/11 2/5/10 4/9/1
f 12/18/8 4/9/1 3/7/3
f 9/15/9 3/7/3 1/2/5
f 14/20/12 16/22/13 13/19/14
f 14/20/12 7/13/2 8/14/15
f 15/21/16 8/14/15 6/12/4
f 16/22/13 6/12/4 5/11/6
f 13/19/14 5/11/6 7/13/2
f 18/24/14 20/26/9 17/23/8
f 18/24/14 3/8/3 7/13/2
f 19/25/13 7/13/2 5/11/6
f 20/26/9 5/11/6 1/3/5
f 17/23/8 1/3/5 3/8/3
f 22/28/11 24/30/16 21/27/12
f 22/28/11 8/14/15 4/10/1
f 23/29/7 4/10/1 2/6/10
f 24/30/16 2/6/10 6/12/4
f 21/27/12 6/12/4 8/14/15
f 4/9/1 8/14/15 7/13/2
f 6/12/4 2/4/10 1/1/5
f 10/16/7 11/17/11 12/18/8
f 10/16/7 9/15/9 1/2/5
f 11/17/11 10/16/7 2/5/10
f 12/18/8 11/17/11 4/9/1
f 9/15/9 12/18/8 3/7/3
f 14/20/12 15/21/16 16/22/13
f 14/20/12 13/19/14 7/13/2
f 15/21/16 14/20/12 8/14/15
f 16/22/13 15/21/16 6/12/4
f 13/19/14 16/22/13 5/11/6
f 18/24/14 19/25/13 20/26/9
f 18/24/14 17/23/8 3/8/3
f 19/25/13 18/24/14 7/13/2
f 20/26/9 19/25/13 5/11/6
f 17/23/8 20/26/9 1/3/5
f 22/28/11 23/29/7 24/30/16
f 22/28/11 21/27/12 8/14/15
f 23/29/7 22/28/11 4/10/1
f 24/30/16 23/29/7 2/6/10
f 21/27/12 24/30/16 6/12/4
