# Blender 3.3.10
# www.blender.org
o PolishMarker
v 0.208465 1.089923 0.010304
v 0.208465 1.160042 0.010304
v 0.208465 1.089923 -0.010304
v 0.208465 1.160042 -0.010304
v 0.278584 1.089923 0.010304
v 0.278584 1.160042 0.010304
v 0.278584 1.089923 -0.010304
v 0.278584 1.160042 -0.010304
v 0.243524 0.972120 -0.010304
v 0.243524 1.277844 -0.010304
v 0.243524 0.972120 0.010304
v 0.243524 1.277844 0.010304
v 0.090662 1.124982 0.010304
v 0.090662 1.124982 -0.010304
v 0.396386 1.124982 -0.010304
v 0.396386 1.124982 0.010304
v 0.243524 1.124982 0.049515
v 0.243524 1.124982 -0.049515
v -0.055204 0.683415 0.019829
v -0.055204 0.818345 0.019829
v -0.055204 0.683415 -0.019829
v -0.055204 0.818345 -0.019829
v 0.079726 0.683415 0.019829
v 0.079726 0.818345 0.019829
v 0.079726 0.683415 -0.019829
v 0.079726 0.818345 -0.019829
v 0.012261 0.456728 -0.019829
v 0.012261 1.045033 -0.019829
v 0.012261 0.456728 0.019829
v 0.012261 1.045033 0.019829
v -0.281891 0.750880 0.019829
v -0.281891 0.750880 -0.019829
v 0.306414 0.750880 -0.019829
v 0.306414 0.750880 0.019829
v 0.012261 0.750880 0.095281
v 0.012261 0.750880 -0.095281
v -0.183797 1.265616 0.007645
v -0.183797 1.317640 0.007645
v -0.183797 1.265616 -0.007645
v -0.183797 1.317640 -0.007645
v -0.131774 1.265616 0.007645
v -0.131774 1.317640 0.007645
v -0.131774 1.265616 -0.007645
v -0.131774 1.317640 -0.007645
v -0.157785 1.178214 -0.007645
v -0.157785 1.405041 -0.007645
v -0.157785 1.178214 0.007645
v -0.157785 1.405041 0.007645
v -0.271199 1.291628 0.007645
v -0.271199 1.291628 -0.007645
v -0.044372 1.291628 -0.007645
v -0.044372 1.291628 0.007645
v -0.157785 1.291628 0.036737
v -0.157785 1.291628 -0.036736
vn -0.0000 -0.0000 -1.0000
vn 0.6132 0.6132 -0.4979
vn 0.8785 -0.0000 -0.4777
vn -0.0000 -0.0000 1.0000
vn -0.6132 0.6132 0.4979
vn -0.8785 -0.0000 0.4777
vn 0.6132 0.6132 0.4979
vn 0.8785 -0.0000 0.4777
vn -0.6132 0.6132 -0.4979
vn -0.0000 0.8785 -0.4777
vn -0.6132 -0.6132 -0.4979
vn -0.0000 -0.8785 -0.4777
vn 0.6132 -0.6132 0.4979
vn -0.0000 -0.8785 0.4777
vn -0.6132 -0.6132 0.4979
vn 0.6132 -0.6132 -0.4979
vn -0.8785 -0.0000 -0.4777
vn -0.0000 0.8785 0.4777
vt 0.375000 1.000000
vt 0.625000 1.000000
vt 0.375000 0.250000
vt 0.625000 0.250000
vt 0.375000 0.750000
vt 0.625000 0.750000
vt 0.375000 0.500000
vt 0.625000 0.500000
vt 0.375000 0.375000
vt 0.625000 0.375000
vt 0.375000 0.875000
vt 0.625000 0.875000
vt 0.500000 1.000000
vt 0.500000 0.250000
vt 0.500000 0.500000
vt 0.500000 0.750000
vt 0.500000 0.875000
vt 0.500000 0.375000
vt 0.375000 1.000000
vt 0.625000 1.000000
vt 0.375000 0.250000
vt 0.625000 0.250000
vt 0.375000 0.750000
vt 0.625000 0.750000
vt 0.375000 0.500000
vt 0.625000 0.500000
vt 0.375000 0.375000
vt 0.625000 0.375000
vt 0.375000 0.875000
vt 0.625000 0.875000
vt 0.500000 1.000000
vt 0.500000 0.250000
vt 0.500000 0.500000
vt 0.500000 0.750000
vt 0.500000 0.875000
vt 0.500000 0.375000
vt 0.375000 1.000000
vt 0.625000 1.000000
vt 0.375000 0.250000
vt 0.625000 0.250000
vt 0.375000 0.750000
vt 0.625000 0.750000
vt 0.375000 0.500000
vt 0.625000 0.500000
vt 0.375000 0.375000
vt 0.625000 0.375000
vt 0.375000 0.875000
vt 0.625000 0.875000
vt 0.500000 1.000000
vt 0.500000 0.250000
vt 0.500000 0.500000
vt 0.500000 0.750000
vt 0.500000 0.875000
vt 0.500000 0.375000
s 1
f 18/18/1 8/8/2 15/15/3
f 17/17/4 2/2/5 13/13/6
f 6/6/7 17/17/4 16/16/8
f 4/4/9 10/10/10 18/18/1
f 3/3/11 18/18/1 9/9/12
f 5/5/13 17/17/4 11/11/14
f 17/17/4 1/1/15 11/11/14
f 18/18/1 7/7/16 9/9/12
f 36/36/1 26/26/2 33/33/3
f 35/35/4 20/20/5 31/31/6
f 24/24/7 35/35/4 34/34/8
f 22/22/9 36/36/1 32/32/17
f 21/21/11 36/36/1 27/27/12
f 23/23/13 35/35/4 29/29/14
f 35/35/4 19/19/15 29/29/14
f 36/36/1 25/25/16 27/27/12
f 54/54/1 44/44/2 51/51/3
f 53/53/4 38/38/5 49/49/6
f 42/42/7 53/53/4 52/52/8
f 40/40/9 54/54/1 50/50/17
f 39/39/11 54/54/1 45/45/12
f 41/41/13 53/53/4 47/47/14
f 53/53/4 37/37/15 47/47/14
f 54/54/1 43/43/16 45/45/12
f 14/14/17 4/4/9 18/18/1
f 18/18/1 10/10/10 8/8/2
f 17/17/4 12/12/18 2/2/5
f 6/6/7 12/12/18 17/17/4
f 3/3/11 14/14/17 18/18/1
f 5/5/13 16/16/8 17/17/4
f 17/17/4 13/13/6 1/1/15
f 18/18/1 15/15/3 7/7/16
f 36/36/1 28/28/10 26/26/2
f 35/35/4 30/30/18 20/20/5
f 24/24/7 30/30/18 35/35/4
f 22/22/9 28/28/10 36/36/1
f 21/21/11 32/32/17 36/36/1
f 23/23/13 34/34/8 35/35/4
f 35/35/4 31/31/6 19/19/15
f 36/36/1 33/33/3 25/25/16
f 54/54/1 46/46/10 44/44/2
f 53/53/4 48/48/18 38/38/5
f 42/42/7 48/48/18 53/53/4
f 40/40/9 46/46/10 54/54/1
f 39/39/11 50/50/17 54/54/1
f 41/41/13 52/52/8 53/53/4
f 53/53/4 49/49/6 37/37/15
f 54/54/1 51/51/3 43/43/16
f 39/39/11 49/49/6 50/50/17
f 45/45/12 37/37/15 39/39/11
f 43/43/16 47/47/14 45/45/12
f 51/51/3 41/41/13 43/43/16
f 44/44/2 52/52/8 51/51/3
f 46/46/10 42/42/7 44/44/2
f 40/40/9 48/48/18 46/46/10
f 50/50/17 38/38/5 40/40/9
f 3/3/11 13/13/6 14/14/17
f 9/9/12 1/1/15 3/3/11
f 7/7/16 11/11/14 9/9/12
f 15/15/3 5/5/13 7/7/16
f 8/8/2 16/16/8 15/15/3
f 10/10/10 6/6/7 8/8/2
f 4/4/9 12/12/18 10/10/10
f 14/14/17 2/2/5 4/4/9
f 21/21/11 31/31/6 32/32/17
f 27/27/12 19/19/15 21/21/11
f 25/25/16 29/29/14 27/27/12
f 33/33/3 23/23/13 25/25/16
f 26/26/2 34/34/8 33/33/3
f 28/28/10 24/24/7 26/26/2
f 22/22/9 30/30/18 28/28/10
f 32/32/17 20/20/5 22/22/9
f 39/39/11 37/37/15 49/49/6
f 45/45/12 47/47/14 37/37/15
f 43/43/16 41/41/13 47/47/14
f 51/51/3 52/52/8 41/41/13
f 44/44/2 42/42/7 52/52/8
f 46/46/10 48/48/18 42/42/7
f 40/40/9 38/38/5 48/48/18
f 50/50/17 49/49/6 38/38/5
f 3/3/11 1/1/15 13/13/6
f 9/9/12 11/11/14 1/1/15
f 7/7/16 5/5/13 11/11/14
f 15/15/3 16/16/8 5/5/13
f 8/8/2 6/6/7 16/16/8
f 10/10/10 12/12/18 6/6/7
f 4/4/9 2/2/5 12/12/18
f 14/14/17 13/13/6 2/2/5
f 21/21/11 19/19/15 31/31/6
f 27/27/12 29/29/14 19/19/15
f 25/25/16 23/23/13 29/29/14
f 33/33/3 34/34/8 23/23/13
f 26/26/2 24/24/7 34/34/8
f 28/28/10 30/30/18 24/24/7
f 22/22/9 20/20/5 30/30/18
f 32/32/17 31/31/6 20/20/5
