# Blender 3.3.10
# www.blender.org
o TechImprMarker
v 0.166372 0.919773 -0.079922
v 0.166372 0.985959 -0.079922
v 0.326825 0.887856 -0.072193
v 0.326825 1.017876 -0.072193
v 0.418217 0.901667 -0.058419
v 0.418217 1.004065 -0.058419
v 0.166372 0.919773 0.079922
v 0.166372 0.985959 0.079922
v 0.326825 0.887856 0.072193
v 0.326825 1.017876 0.072193
v 0.418217 0.901667 0.058419
v 0.418217 1.004065 0.058419
v 0.141043 1.047108 -0.079922
v 0.094242 1.093909 -0.079922
v 0.277069 1.137998 -0.072193
v 0.185132 1.229935 -0.072193
v 0.331927 1.212387 -0.058419
v 0.259521 1.284794 -0.058419
v 0.141043 1.047108 0.079922
v 0.094242 1.093909 0.079922
v 0.277069 1.137998 0.072193
v 0.185132 1.229935 0.072193
v 0.331927 1.212387 0.058419
v 0.259521 1.284794 0.058419
v 0.033093 1.119238 -0.079922
v -0.033093 1.119238 -0.079922
v 0.065010 1.279691 -0.072193
v -0.065010 1.279691 -0.072193
v 0.051199 1.371083 -0.058419
v -0.051199 1.371083 -0.058419
v 0.033093 1.119238 0.079922
v -0.033093 1.119238 0.079922
v 0.065010 1.279691 0.072193
v -0.065010 1.279691 0.072193
v 0.051199 1.371083 0.058419
v -0.051199 1.371083 0.058419
v -0.094242 1.093909 -0.079922
v -0.141043 1.047108 -0.079922
v -0.185132 1.229935 -0.072193
v -0.277069 1.137998 -0.072193
v -0.259521 1.284794 -0.058419
v -0.331927 1.212387 -0.058418
v -0.094242 1.093909 0.079922
v -0.141043 1.047108 0.079922
v -0.185132 1.229935 0.072193
v -0.277069 1.137998 0.072193
v -0.259521 1.284794 0.058419
v -0.331927 1.212387 0.058419
v -0.166372 0.985959 -0.079922
v -0.166372 0.919773 -0.079922
v -0.326826 1.017876 -0.072193
v -0.326826 0.887856 -0.072193
v -0.418217 1.004065 -0.058419
v -0.418217 0.901667 -0.058419
v -0.166372 0.985959 0.079922
v -0.166372 0.919773 0.079922
v -0.326826 1.017876 0.072193
v -0.326826 0.887856 0.072193
v -0.418217 1.004065 0.058419
v -0.418217 0.901667 0.058419
v -0.141043 0.858624 -0.079922
v -0.094242 0.811823 -0.079922
v -0.277069 0.767734 -0.072193
v -0.185132 0.675797 -0.072193
v -0.331928 0.693346 -0.058419
v -0.259521 0.620939 -0.058419
v -0.141043 0.858624 0.079922
v -0.094242 0.811823 0.079922
v -0.277069 0.767734 0.072193
v -0.185132 0.675797 0.072193
v -0.331928 0.693346 0.058419
v -0.259521 0.620939 0.058419
v -0.033093 0.786494 -0.079922
v 0.033093 0.786494 -0.079922
v -0.065010 0.626040 -0.072193
v 0.065010 0.626040 -0.072193
v -0.051199 0.534649 -0.058419
v 0.051199 0.534649 -0.058419
v -0.033093 0.786494 0.079922
v 0.033093 0.786494 0.079922
v -0.065010 0.626040 0.072193
v 0.065010 0.626040 0.072193
v -0.051199 0.534649 0.058419
v 0.051199 0.534649 0.058419
v 0.094242 0.811823 -0.079922
v 0.141043 0.858624 -0.079922
v 0.185132 0.675797 -0.072193
v 0.277069 0.767734 -0.072193
v 0.259520 0.620939 -0.058419
v 0.331927 0.693346 -0.058419
v 0.094242 0.811823 0.079922
v 0.141043 0.858624 0.079922
v 0.185132 0.675797 0.072193
v 0.277069 0.767734 0.072193
v 0.259520 0.620939 0.058419
v 0.331927 0.693346 0.058418
vn 0.3975 -0.4035 -0.8241
vn 0.5664 0.0042 0.8241
vn 0.5664 0.0042 -0.8241
vn -0.3537 -0.5294 -0.7711
vn 0.5664 -0.0042 -0.8241
vn -0.5294 -0.3537 -0.7711
vn 0.4035 0.3975 -0.8241
vn -0.5342 0.6550 -0.5344
vn 0.5342 0.6550 -0.5344
vn 0.3975 0.4035 0.8241
vn -0.5294 -0.3537 0.7711
vn -0.6245 -0.1242 0.7711
vn 0.8409 0.0854 0.5344
vn -0.0042 0.5664 0.8241
vn 0.5664 -0.0042 0.8241
vn 0.6550 0.5342 0.5344
vn 0.6550 -0.5342 -0.5344
vn 0.6550 0.5342 -0.5344
vn 0.1242 0.6245 -0.7711
vn 0.3537 0.5294 0.7711
vn 0.1242 0.6245 0.7711
vn 0.3975 0.4035 -0.8241
vn -0.6245 -0.1242 -0.7711
vn 0.8409 0.0854 -0.5344
vn -0.3537 -0.5294 0.7711
vn -0.0042 0.5664 -0.8241
vn 0.0854 0.8409 0.5344
vn 0.0854 0.8409 -0.5344
vn 0.1242 -0.6245 -0.7711
vn -0.1242 -0.6245 -0.7711
vn 0.0042 0.5664 -0.8241
vn -0.8409 0.0854 -0.5344
vn -0.0854 0.8409 -0.5344
vn 0.4035 0.3975 0.8241
vn -0.5342 0.6550 0.5344
vn 0.5342 0.6550 0.5344
vn 0.5294 0.3537 -0.7711
vn 0.3537 0.5294 -0.7711
vn 0.1242 -0.6245 0.7711
vn -0.4035 0.3975 0.8241
vn -0.4035 0.3975 -0.8241
vn -0.6245 0.1242 -0.7711
vn -0.5294 0.3537 0.7711
vn -0.6245 0.1242 0.7711
vn 0.5294 -0.3537 -0.7711
vn 0.3537 -0.5294 -0.7711
vn -0.3975 -0.4035 -0.8241
vn -0.6550 0.5342 -0.5344
vn -0.3975 0.4035 -0.8241
vn 0.3537 -0.5294 0.7711
vn -0.8409 0.0854 0.5344
vn 0.0042 0.5664 0.8241
vn -0.0854 0.8409 0.5344
vn 0.6245 0.1242 0.7711
vn 0.5294 0.3537 0.7711
vn -0.5664 -0.0042 0.8241
vn 0.6245 0.1242 -0.7711
vn 0.6245 -0.1242 -0.7711
vn -0.5664 0.0042 -0.8241
vn -0.0854 -0.8409 -0.5344
vn -0.8409 -0.0854 -0.5344
vn -0.3975 0.4035 0.8241
vn 0.5294 -0.3537 0.7711
vn -0.6550 -0.5342 0.5344
vn -0.6550 0.5342 0.5344
vn 0.6245 -0.1242 0.7711
vn -0.5664 -0.0042 -0.8241
vn -0.3975 -0.4035 0.8241
vn -0.6550 -0.5342 -0.5344
vn 0.0042 -0.5664 -0.8241
vn 0.4035 -0.3975 -0.8241
vn -0.5342 -0.6550 -0.5344
vn -0.4035 -0.3975 -0.8241
vn -0.0854 -0.8409 0.5344
vn -0.5664 0.0042 0.8241
vn -0.8409 -0.0854 0.5344
vn 0.0042 -0.5664 0.8241
vn 0.0854 -0.8409 -0.5344
vn -0.0042 -0.5664 -0.8241
vn -0.5342 -0.6550 0.5344
vn 0.4035 -0.3975 0.8241
vn -0.4035 -0.3975 0.8241
vn 0.5342 -0.6550 0.5344
vn 0.5342 -0.6550 -0.5344
vn -0.1242 -0.6245 0.7711
vn -0.5294 0.3537 -0.7711
vn -0.3537 0.5294 -0.7711
vn -0.0042 -0.5664 0.8241
vn -0.1242 0.6245 0.7711
vn 0.0854 -0.8409 0.5344
vn -0.1242 0.6245 -0.7711
vn -0.3537 0.5294 0.7711
vn 0.8409 -0.0854 0.5344
vn 0.8409 -0.0854 -0.5344
vn 0.6550 -0.5342 0.5344
vn 0.3975 -0.4035 0.8241
s 1
f 3//1 94//2 88//3
f 14//4 15//5 13//6
f 27//7 30//8 29//9
f 10//10 19//11 8//12
f 23//13 22//14 21//15
f 12//16 5//17 6//18
f 73//19 68//20 79//21
f 13//6 4//22 2//23
f 23//13 15//5 17//24
f 20//25 21//15 22//14
f 16//26 24//27 18//28
f 15//5 10//10 4//22
f 26//29 27//7 25//30
f 39//31 42//32 41//33
f 33//34 20//25 22//14
f 36//35 33//34 35//36
f 18//28 23//13 17//24
f 61//37 68//20 62//38
f 14//4 27//7 16//26
f 35//36 27//7 29//9
f 32//39 33//34 34//40
f 28//41 36//35 30//8
f 1//42 92//43 7//44
f 16//26 33//34 22//14
f 38//45 39//31 37//46
f 52//47 53//48 51//49
f 34//40 43//50 32//39
f 48//51 45//52 47//53
f 30//8 35//36 29//9
f 61//37 56//54 67//55
f 37//46 28//41 26//29
f 47//53 39//31 41//33
f 46//56 43//50 45//52
f 42//32 46//56 48//51
f 7//44 2//23 1//42
f 39//31 34//40 28//41
f 50//57 51//49 49//58
f 63//59 66//60 65//61
f 57//62 44//63 46//56
f 60//64 57//62 59//65
f 42//32 47//53 41//33
f 56//54 49//58 55//66
f 49//58 40//67 38//45
f 59//65 51//49 53//48
f 56//54 57//62 58//68
f 52//47 60//64 54//69
f 13//6 8//12 19//11
f 51//49 46//56 40//67
f 61//37 64//70 63//59
f 76//71 77//72 75//73
f 58//68 67//55 56//54
f 72//74 69//75 71//76
f 60//64 53//48 54//69
f 49//58 44//63 55//66
f 61//37 52//47 50//57
f 71//76 63//59 65//61
f 70//77 67//55 69//75
f 64//70 72//74 66//60
f 14//4 19//11 20//25
f 63//59 58//68 52//47
f 73//19 76//71 75//73
f 88//3 89//78 87//79
f 70//77 79//21 68//20
f 83//80 82//81 81//82
f 72//74 65//61 66//60
f 37//46 44//63 38//45
f 73//19 64//70 62//38
f 83//80 75//73 77//72
f 82//81 79//21 81//82
f 76//71 84//83 78//84
f 31//85 14//4 20//25
f 64//70 81//82 70//77
f 86//86 87//79 85//87
f 4//22 12//16 6//18
f 93//88 80//89 82//81
f 95//90 94//2 93//88
f 84//83 77//72 78//84
f 37//46 32//39 43//50
f 74//91 87//79 76//71
f 95//90 87//79 89//78
f 94//2 91//92 93//88
f 88//3 96//93 90//94
f 86//86 91//92 92//43
f 87//79 82//81 76//71
f 80//89 73//19 79//21
f 1//42 4//22 3//1
f 11//95 3//1 5//17
f 32//39 25//30 31//85
f 96//93 89//78 90//94
f 86//86 3//1 88//3
f 9//96 92//43 94//2
f 4//22 5//17 3//1
f 16//26 17//24 15//5
f 11//95 10//10 9//96
f 85//87 80//89 91//92
f 8//12 9//96 10//10
f 3//1 9//96 94//2
f 14//4 16//26 15//5
f 27//7 28//41 30//8
f 10//10 21//15 19//11
f 23//13 24//27 22//14
f 12//16 11//95 5//17
f 73//19 62//38 68//20
f 13//6 15//5 4//22
f 23//13 21//15 15//5
f 20//25 19//11 21//15
f 16//26 22//14 24//27
f 15//5 21//15 10//10
f 26//29 28//41 27//7
f 39//31 40//67 42//32
f 33//34 31//85 20//25
f 36//35 34//40 33//34
f 18//28 24//27 23//13
f 61//37 67//55 68//20
f 14//4 25//30 27//7
f 35//36 33//34 27//7
f 32//39 31//85 33//34
f 28//41 34//40 36//35
f 1//42 86//86 92//43
f 16//26 27//7 33//34
f 38//45 40//67 39//31
f 52//47 54//69 53//48
f 34//40 45//52 43//50
f 48//51 46//56 45//52
f 30//8 36//35 35//36
f 61//37 50//57 56//54
f 37//46 39//31 28//41
f 47//53 45//52 39//31
f 46//56 44//63 43//50
f 42//32 40//67 46//56
f 7//44 8//12 2//23
f 39//31 45//52 34//40
f 50//57 52//47 51//49
f 63//59 64//70 66//60
f 57//62 55//66 44//63
f 60//64 58//68 57//62
f 42//32 48//51 47//53
f 56//54 50//57 49//58
f 49//58 51//49 40//67
f 59//65 57//62 51//49
f 56//54 55//66 57//62
f 52//47 58//68 60//64
f 13//6 2//23 8//12
f 51//49 57//62 46//56
f 61//37 62//38 64//70
f 76//71 78//84 77//72
f 58//68 69//75 67//55
f 72//74 70//77 69//75
f 60//64 59//65 53//48
f 49//58 38//45 44//63
f 61//37 63//59 52//47
f 71//76 69//75 63//59
f 70//77 68//20 67//55
f 64//70 70//77 72//74
f 14//4 13//6 19//11
f 63//59 69//75 58//68
f 73//19 74//91 76//71
f 88//3 90//94 89//78
f 70//77 81//82 79//21
f 83//80 84//83 82//81
f 72//74 71//76 65//61
f 37//46 43//50 44//63
f 73//19 75//73 64//70
f 83//80 81//82 75//73
f 82//81 80//89 79//21
f 76//71 82//81 84//83
f 31//85 25//30 14//4
f 64//70 75//73 81//82
f 86//86 88//3 87//79
f 4//22 10//10 12//16
f 93//88 91//92 80//89
f 95//90 96//93 94//2
f 84//83 83//80 77//72
f 37//46 26//29 32//39
f 74//91 85//87 87//79
f 95//90 93//88 87//79
f 94//2 92//43 91//92
f 88//3 94//2 96//93
f 86//86 85//87 91//92
f 87//79 93//88 82//81
f 80//89 74//91 73//19
f 1//42 2//23 4//22
f 11//95 9//96 3//1
f 32//39 26//29 25//30
f 96//93 95//90 89//78
f 86//86 1//42 3//1
f 9//96 7//44 92//43
f 4//22 6//18 5//17
f 16//26 18//28 17//24
f 11//95 12//16 10//10
f 85//87 74//91 80//89
f 8//12 7//44 9//96
