# Blender 3.3.10
# www.blender.org
o UnknownMarker
v -0.011276 1.370203 0.045910
v -0.199358 1.292297 0.045910
v -0.277265 1.104214 0.045910
v -0.051101 0.564943 0.045910
v 0.072335 0.567169 0.045910
v 0.072335 0.640911 0.045910
v -0.051101 0.638685 0.045910
v 0.170192 0.910395 0.045910
v 0.254713 1.104214 0.045910
v 0.176807 1.292297 0.045910
v -0.011276 1.246701 0.045910
v -0.112029 1.204968 0.045910
v -0.153763 1.104214 0.045910
v 0.072335 0.774279 0.045910
v -0.051101 0.778281 0.045910
v 0.090964 0.832986 0.045910
v -0.010394 0.898239 0.045910
v 0.096093 1.009198 0.045910
v 0.131212 1.104214 0.045910
v 0.089478 1.204968 0.045910
v -0.051101 0.445109 0.045910
v 0.072335 0.447335 0.045910
v -0.011276 1.246701 -0.079885
v -0.112029 1.204968 -0.079885
v -0.153763 1.104214 -0.079885
v -0.051101 0.778281 -0.079885
v 0.072335 0.774279 -0.079885
v 0.090964 0.832986 -0.079885
v -0.010394 0.898239 -0.079885
v 0.096093 1.009198 -0.079885
v 0.131212 1.104214 -0.079885
v 0.089478 1.204968 -0.079885
v -0.011276 1.370203 -0.079885
v -0.199358 1.292297 -0.079885
v -0.277265 1.104214 -0.079885
v -0.051101 0.564943 -0.079885
v -0.051101 0.445109 -0.079885
v 0.072335 0.447335 -0.079885
v -0.051101 0.638685 -0.079885
v 0.072335 0.640911 -0.079885
v 0.170192 0.910395 -0.079885
v 0.254713 1.104214 -0.079885
v 0.176807 1.292297 -0.079885
v 0.072335 0.567169 -0.079885
vn -0.5490 0.5490 0.6303
vn -0.0000 -0.5944 0.8042
vn -0.0000 0.7764 0.6303
vn -0.6892 -0.4605 0.5595
vn 0.4203 -0.4203 0.8042
vn 0.7776 -0.0072 0.6287
vn -0.5548 0.3474 0.7560
vn 0.6136 -0.4235 0.6664
vn -0.5821 0.5716 0.5783
vn 0.5821 -0.5716 0.5783
vn 0.5726 0.5830 0.5764
vn -0.5726 -0.5830 0.5764
vn 0.6612 -0.1024 0.7432
vn -0.7305 0.1206 0.6722
vn -0.6410 0.3895 0.6614
vn 0.5474 -0.3372 0.7660
vn -0.4203 -0.4203 0.8042
vn -0.6011 -0.0116 0.7991
vn 0.5490 0.5490 0.6303
vn -0.5548 0.3474 -0.7560
vn 0.5474 -0.3372 -0.7660
vn -0.6410 0.3895 -0.6614
vn -0.0000 -0.5944 -0.8042
vn -0.5490 0.5490 -0.6303
vn -0.0000 0.7764 -0.6303
vn 0.4203 -0.4203 -0.8042
vn -0.6892 -0.4605 -0.5595
vn 0.7776 -0.0072 -0.6287
vn 0.6136 -0.4235 -0.6664
vn 0.5821 -0.5716 -0.5783
vn -0.5820 0.5716 -0.5783
vn 0.5726 0.5830 -0.5764
vn 0.6612 -0.1024 -0.7432
vn -0.5726 -0.5830 -0.5764
vn -0.7305 0.1206 -0.6722
vn -0.4203 -0.4203 -0.8042
vn -0.6011 -0.0116 -0.7991
vn 0.5490 0.5490 -0.6303
vn 0.4441 -0.6646 0.6009
vn 0.4441 -0.6646 -0.6009
vt 0.000000 0.000000
vt 0.000000 0.000000
vt 0.000000 0.000000
vt 0.000000 0.000000
vt 0.000000 0.000000
vt 0.000000 0.000000
vt 0.000000 0.000000
vt 0.000000 0.000000
vt 0.000000 0.000000
vt 0.000000 0.000000
vt 0.000000 0.000000
vt 0.000000 0.000000
vt 0.000000 0.000000
vt 0.000000 0.000000
vt 0.000000 0.000000
vt 0.000000 0.000000
vt 0.000000 0.000000
vt 0.000000 0.000000
vt 0.000000 0.000000
vt 0.000000 0.000000
vt 0.000000 0.000000
vt 0.000000 0.000000
vt 0.000000 0.000000
vt 0.000000 0.000000
vt 0.000000 0.000000
vt 0.000000 0.000000
vt 0.000000 0.000000
vt 0.000000 0.000000
vt 0.000000 0.000000
vt 0.000000 0.000000
vt 0.000000 0.000000
vt 0.000000 0.000000
vt 0.000000 0.000000
vt 0.000000 0.000000
vt 0.000000 0.000000
vt 0.000000 0.000000
vt 0.000000 0.000000
vt 0.000000 0.000000
vt 0.000000 0.000000
vt 0.000000 0.000000
vt 0.000000 0.000000
vt 0.000000 0.000000
vt 0.000000 0.000000
vt 0.000000 0.000000
s 1
f 2/2/1 11/11/2 1/1/3
f 3/3/4 12/12/5 2/2/1
f 9/9/6 18/18/7 8/8/8
f 4/4/9 22/22/10 5/5/11
f 7/7/12 14/14/13 15/15/14
f 17/17/15 14/14/13 16/16/16
f 9/9/6 20/20/17 19/19/18
f 10/10/19 11/11/2 20/20/17
f 30/30/20 28/28/21 29/29/22
f 23/23/23 34/34/24 33/33/25
f 24/24/26 35/35/27 34/34/24
f 30/30/20 42/42/28 41/41/29
f 38/38/30 36/36/31 44/44/32
f 27/27/33 39/39/34 26/26/35
f 29/29/22 27/27/33 26/26/35
f 32/32/36 42/42/28 31/31/37
f 23/23/23 43/43/38 32/32/36
f 13/13/39 24/24/26 12/12/5
f 10/10/19 33/33/25 1/1/3
f 1/1/3 34/34/24 2/2/1
f 2/2/1 35/35/27 3/3/4
f 17/17/15 30/30/20 29/29/22
f 14/14/13 28/28/21 16/16/16
f 16/16/16 41/41/29 8/8/8
f 36/36/31 21/21/12 4/4/9
f 18/18/7 31/31/37 30/30/20
f 37/37/34 22/22/10 21/21/12
f 3/3/4 25/25/40 13/13/39
f 7/7/12 26/26/35 39/39/34
f 38/38/30 5/5/11 22/22/10
f 7/7/12 40/40/30 6/6/10
f 8/8/8 42/42/28 9/9/6
f 44/44/32 4/4/9 5/5/11
f 6/6/10 27/27/33 14/14/13
f 19/19/18 32/32/36 31/31/37
f 12/12/5 23/23/23 11/11/2
f 15/15/14 29/29/22 26/26/35
f 9/9/6 43/43/38 10/10/19
f 11/11/2 32/32/36 20/20/17
f 18/18/7 16/16/16 8/8/8
f 2/2/1 12/12/5 11/11/2
f 3/3/4 13/13/39 12/12/5
f 9/9/6 19/19/18 18/18/7
f 4/4/9 21/21/12 22/22/10
f 7/7/12 6/6/10 14/14/13
f 17/17/15 15/15/14 14/14/13
f 9/9/6 10/10/19 20/20/17
f 10/10/19 1/1/3 11/11/2
f 30/30/20 41/41/29 28/28/21
f 23/23/23 24/24/26 34/34/24
f 24/24/26 25/25/40 35/35/27
f 30/30/20 31/31/37 42/42/28
f 38/38/30 37/37/34 36/36/31
f 27/27/33 40/40/30 39/39/34
f 29/29/22 28/28/21 27/27/33
f 32/32/36 43/43/38 42/42/28
f 23/23/23 33/33/25 43/43/38
f 13/13/39 25/25/40 24/24/26
f 10/10/19 43/43/38 33/33/25
f 1/1/3 33/33/25 34/34/24
f 2/2/1 34/34/24 35/35/27
f 17/17/15 18/18/7 30/30/20
f 14/14/13 27/27/33 28/28/21
f 16/16/16 28/28/21 41/41/29
f 36/36/31 37/37/34 21/21/12
f 18/18/7 19/19/18 31/31/37
f 37/37/34 38/38/30 22/22/10
f 3/3/4 35/35/27 25/25/40
f 7/7/12 15/15/14 26/26/35
f 38/38/30 44/44/32 5/5/11
f 7/7/12 39/39/34 40/40/30
f 8/8/8 41/41/29 42/42/28
f 44/44/32 36/36/31 4/4/9
f 6/6/10 40/40/30 27/27/33
f 19/19/18 20/20/17 32/32/36
f 12/12/5 24/24/26 23/23/23
f 15/15/14 17/17/15 29/29/22
f 9/9/6 42/42/28 43/43/38
f 11/11/2 23/23/23 32/32/36
f 18/18/7 17/17/15 16/16/16
